<mxfile host="app.diagrams.net" modified="2024-05-12T09:36:50.510Z" agent="Mozilla/5.0 (Windows NT 10.0; Win64; x64) AppleWebKit/537.36 (KHTML, like Gecko) Chrome/124.0.0.0 Safari/537.36" etag="95_YmG6nSfwpTrYRkuKB" version="24.4.0" type="github">
  <diagram name="Page-1" id="reGj1-QYna-Ltqa6kE-x">
    <mxGraphModel dx="1134" dy="649" grid="1" gridSize="10" guides="1" tooltips="1" connect="1" arrows="1" fold="1" page="1" pageScale="1" pageWidth="850" pageHeight="1100" math="0" shadow="0">
      <root>
        <mxCell id="0" />
        <mxCell id="1" parent="0" />
        <mxCell id="vihW_l98AV0LsORb0lkp-5" style="edgeStyle=orthogonalEdgeStyle;rounded=0;orthogonalLoop=1;jettySize=auto;html=1;entryX=0;entryY=0.5;entryDx=0;entryDy=0;" edge="1" parent="1" source="vihW_l98AV0LsORb0lkp-1" target="vihW_l98AV0LsORb0lkp-4">
          <mxGeometry relative="1" as="geometry" />
        </mxCell>
        <mxCell id="vihW_l98AV0LsORb0lkp-1" value="Menyusun Informasi Buku Dengan Status Yang Baru" style="ellipse;whiteSpace=wrap;html=1;" vertex="1" parent="1">
          <mxGeometry x="160" y="200" width="120" height="80" as="geometry" />
        </mxCell>
        <mxCell id="vihW_l98AV0LsORb0lkp-2" value="" style="endArrow=classic;html=1;rounded=0;" edge="1" parent="1" target="vihW_l98AV0LsORb0lkp-1">
          <mxGeometry width="50" height="50" relative="1" as="geometry">
            <mxPoint x="40" y="240" as="sourcePoint" />
            <mxPoint x="430" y="210" as="targetPoint" />
          </mxGeometry>
        </mxCell>
        <mxCell id="vihW_l98AV0LsORb0lkp-3" value="Status Buku Yang Baru" style="text;html=1;align=center;verticalAlign=middle;whiteSpace=wrap;rounded=0;" vertex="1" parent="1">
          <mxGeometry x="30" y="210" width="130" height="30" as="geometry" />
        </mxCell>
        <mxCell id="vihW_l98AV0LsORb0lkp-6" style="edgeStyle=orthogonalEdgeStyle;rounded=0;orthogonalLoop=1;jettySize=auto;html=1;" edge="1" parent="1" source="vihW_l98AV0LsORb0lkp-4">
          <mxGeometry relative="1" as="geometry">
            <mxPoint x="600" y="240" as="targetPoint" />
          </mxGeometry>
        </mxCell>
        <mxCell id="vihW_l98AV0LsORb0lkp-4" value="Menampilkan Infromasi Buku dengan Status Baru" style="ellipse;whiteSpace=wrap;html=1;" vertex="1" parent="1">
          <mxGeometry x="370" y="200" width="120" height="80" as="geometry" />
        </mxCell>
        <mxCell id="vihW_l98AV0LsORb0lkp-7" value="Data Pengembalian" style="text;html=1;align=center;verticalAlign=middle;whiteSpace=wrap;rounded=0;" vertex="1" parent="1">
          <mxGeometry x="490" y="210" width="120" height="30" as="geometry" />
        </mxCell>
      </root>
    </mxGraphModel>
  </diagram>
</mxfile>
